<svg xmlns="http://www.w3.org/2000/svg" viewBox="0 0 512 512"><circle cx="256" cy="256" r="256" fill="#1ED760"/><path d="M392.6 361.2c-4.7 7.7-14.7 10.2-22.4 5.5-61.4-37.6-138.8-46-229.9-27.1-8.8 1.8-17.4-3.9-19.2-12.7-1.8-8.8 3.9-17.4 12.7-19.2 98.2-20.2 182.6-10.7 250.2 30.1 7.7 4.7 10.2 14.7 5.6 22.4zm31.9-65.7c-5.8 9.4-18.1 12.4-27.5 6.6-70.3-43-177.7-55.5-260.8-32.7-10.3 2.8-21-3.1-23.8-13.4-2.8-10.3 3.1-21 13.4-23.8 92.6-25.2 210.6-11.6 289.7 36.1 9.4 5.8 12.4 18.1 6.6 27.2zm2.8-68.2C334.7 187.2 177.2 182 111.2 200.1c-12.1 3.3-24.7-3.7-28-15.8-3.3-12.1 3.7-24.7 15.8-28 75.2-20.5 243.2-15.1 340.2 44.2 11.1 6.6 14.7 21 8.1 32.1-6.6 11.1-21 14.7-32.1 8.1z" fill="#fff"/></svg> 